{
  "accessors": [
    {
      "bufferView": 2,
      "componentType": 5126,
      "count": 2217,
      "max": [
        0.15381525456905365,
        0.20916827023029327,
        0.7248323559761047
      ],
      "min": [
        -0.15381523966789246,
        -0.15381526947021484,
        -0.06446186453104019
      ],
      "type": "VEC3"
    },
    {
      "bufferView": 2,
      "byteOffset": 26604,
      "componentType": 5126,
      "count": 2217,
      "max": [
        1.0,
        1.0,
        1.0
      ],
      "min": [
        -1.0,
        -1.0,
        -1.0
      ],
      "type": "VEC3"
    },
    {
      "bufferView": 1,
      "componentType": 5126,
      "count": 2217,
      "max": [
        0.9997930526733398,
        0.9330585598945618
      ],
      "min": [
        0.33472350239753723,
        0.00020696768478956074
      ],
      "type": "VEC2"
    },
    {
      "bufferView": 0,
      "componentType": 5125,
      "count": 11178,
      "type": "SCALAR"
    },
    {
      "bufferView": 2,
      "byteOffset": 53208,
      "componentType": 5126,
      "count": 66,
      "max": [
        0.11533288657665253,
        0.11533286422491074,
        0.5752778649330139
      ],
      "min": [
        -0.11533287167549133,
        -0.11533290892839432,
        0.08103589713573456
      ],
      "type": "VEC3"
    },
    {
      "bufferView": 2,
      "byteOffset": 54000,
      "componentType": 5126,
      "count": 66,
      "max": [
        1.0,
        1.0,
        1.360896959567981e-07
      ],
      "min": [
        -1.0,
        -1.0,
        -1.360897101676528e-07
      ],
      "type": "VEC3"
    },
    {
      "bufferView": 1,
      "byteOffset": 17736,
      "componentType": 5126,
      "count": 66,
      "max": [
        0.38070303201675415,
        0.5572053790092468
      ],
      "min": [
        0.00020696768478956074,
        0.00020696768478956074
      ],
      "type": "VEC2"
    },
    {
      "bufferView": 0,
      "byteOffset": 44712,
      "componentType": 5125,
      "count": 192,
      "type": "SCALAR"
    },
    {
      "bufferView": 2,
      "byteOffset": 54792,
      "componentType": 5126,
      "count": 801,
      "max": [
        0.11556213349103928,
        0.11556202173233032,
        0.929725170135498
      ],
      "min": [
        -0.11556202173233032,
        -0.11556217819452286,
        0.7248323559761047
      ],
      "type": "VEC3"
    },
    {
      "bufferView": 2,
      "byteOffset": 64404,
      "componentType": 5126,
      "count": 801,
      "max": [
        1.0,
        1.0,
        1.0
      ],
      "min": [
        -1.0,
        -1.0,
        -0.705576479434967
      ],
      "type": "VEC3"
    },
    {
      "bufferView": 1,
      "byteOffset": 18264,
      "componentType": 5126,
      "count": 801,
      "max": [
        0.33430954813957214,
        0.8906858563423157
      ],
      "min": [
        0.00020696768478956074,
        0.5576192736625671
      ],
      "type": "VEC2"
    },
    {
      "bufferView": 0,
      "byteOffset": 45480,
      "componentType": 5125,
      "count": 4704,
      "type": "SCALAR"
    },
    {
      "bufferView": 2,
      "byteOffset": 74016,
      "componentType": 5126,
      "count": 198,
      "max": [
        0.11835694313049316,
        0.11835692077875137,
        0.579937219619751
      ],
      "min": [
        -0.11835691332817078,
        -0.11835696548223495,
        0.07637660205364227
      ],
      "type": "VEC3"
    },
    {
      "bufferView": 2,
      "byteOffset": 76392,
      "componentType": 5126,
      "count": 198,
      "max": [
        1.0,
        1.0,
        1.0
      ],
      "min": [
        -1.0,
        -1.0,
        -1.0
      ],
      "type": "VEC3"
    },
    {
      "bufferView": 1,
      "byteOffset": 24672,
      "componentType": 5126,
      "count": 198,
      "max": [
        0.9973828792572021,
        0.9999999403953552
      ],
      "min": [
        0.002385516883805394,
        0.004656123463064432
      ],
      "type": "VEC2"
    },
    {
      "bufferView": 0,
      "byteOffset": 64296,
      "componentType": 5125,
      "count": 576,
      "type": "SCALAR"
    },
    {
      "bufferView": 3,
      "componentType": 5126,
      "count": 4,
      "max": [
        4.958333492279053
      ],
      "min": [
        0.0
      ],
      "type": "SCALAR"
    },
    {
      "bufferView": 4,
      "componentType": 5126,
      "count": 4,
      "max": [
        100.0,
        100.0,
        100.0
      ],
      "min": [
        99.99999237060547,
        99.99999237060547,
        100.0
      ],
      "type": "VEC3"
    },
    {
      "bufferView": 3,
      "byteOffset": 16,
      "componentType": 5126,
      "count": 238,
      "max": [
        4.958333492279053
      ],
      "min": [
        0.0
      ],
      "type": "SCALAR"
    },
    {
      "bufferView": 5,
      "componentType": 5126,
      "count": 238,
      "max": [
        0.4950445592403412,
        0.7070707082748413,
        0.7070708274841309,
        0.7071067094802856
      ],
      "min": [
        -0.7071068286895752,
        -0.4970134198665619,
        -0.49701350927352905,
        -0.495044469833374
      ],
      "type": "VEC4"
    }
  ],
  "animations": [
    {
      "channels": [
        {
          "sampler": 0,
          "target": {
            "node": 8,
            "path": "scale"
          }
        },
        {
          "sampler": 1,
          "target": {
            "node": 8,
            "path": "rotation"
          }
        }
      ],
      "name": "Inner|InnerAction",
      "samplers": [
        {
          "input": 16,
          "interpolation": "LINEAR",
          "output": 17
        },
        {
          "input": 18,
          "interpolation": "LINEAR",
          "output": 19
        }
      ]
    }
  ],
  "asset": {
    "extras": {
      "author": "Vinny Passmore (https://sketchfab.com/HPrendering)",
      "license": "CC-BY-4.0 (http://creativecommons.org/licenses/by/4.0/)",
      "source": "https://sketchfab.com/3d-models/barbers-pole-e5eb506d8d5c4cd5a775028a4a3e1d58",
      "title": "Barbers Pole"
    },
    "generator": "Sketchfab-12.65.0",
    "version": "2.0"
  },
  "bufferViews": [
    {
      "buffer": 0,
      "byteLength": 66600,
      "name": "floatBufferViews",
      "target": 34963
    },
    {
      "buffer": 0,
      "byteLength": 26256,
      "byteOffset": 66600,
      "byteStride": 8,
      "name": "floatBufferViews",
      "target": 34962
    },
    {
      "buffer": 0,
      "byteLength": 78768,
      "byteOffset": 92856,
      "byteStride": 12,
      "name": "floatBufferViews",
      "target": 34962
    },
    {
      "buffer": 0,
      "byteLength": 968,
      "byteOffset": 171624,
      "name": "floatBufferViews"
    },
    {
      "buffer": 0,
      "byteLength": 48,
      "byteOffset": 172592,
      "byteStride": 12,
      "name": "floatBufferViews"
    },
    {
      "buffer": 0,
      "byteLength": 3808,
      "byteOffset": 172640,
      "byteStride": 16,
      "name": "floatBufferViews"
    }
  ],
  "buffers": [
    {
      "byteLength": 176448,
      "uri": "scene.bin"
    }
  ],
  "images": [
    {
      "uri": "textures/Metal12_baseColor.png"
    },
    {
      "uri": "textures/Easy_Glass_baseColor.png"
    },
    {
      "uri": "textures/Light_Top_baseColor.png"
    },
    {
      "uri": "textures/Inner_Mat_baseColor.png"
    }
  ],
  "materials": [
    {
      "doubleSided": true,
      "name": "Metal12",
      "pbrMetallicRoughness": {
        "baseColorFactor": [
          0.8320075757575758,
          0.8320075757575758,
          0.8320075757575758,
          1.0
        ],
        "baseColorTexture": {
          "index": 0
        },
        "metallicFactor": 0.8865530303030303,
        "roughnessFactor": 0.050189393939393936
      }
    },
    {
      "alphaMode": "BLEND",
      "doubleSided": true,
      "name": "Easy_Glass",
      "pbrMetallicRoughness": {
        "baseColorFactor": [
          1.0,
          1.0,
          1.0,
          0.3653409090909091
        ],
        "baseColorTexture": {
          "index": 1
        },
        "metallicFactor": 0.0,
        "roughnessFactor": 0.9134469696969697
      }
    },
    {
      "emissiveFactor": [
        1.0,
        1.0,
        1.0
      ],
      "emissiveTexture": {
        "index": 2
      },
      "name": "Light_Top",
      "pbrMetallicRoughness": {
        "baseColorTexture": {
          "index": 2
        },
        "metallicFactor": 0.6441287878787879,
        "roughnessFactor": 0.8986742424242424
      }
    },
    {
      "doubleSided": true,
      "name": "Inner_Mat",
      "pbrMetallicRoughness": {
        "baseColorTexture": {
          "index": 3
        },
        "metallicFactor": 0.15321969696969698,
        "roughnessFactor": 0.0
      }
    }
  ],
  "meshes": [
    {
      "name": "Ouiter_Metal12_0",
      "primitives": [
        {
          "attributes": {
            "NORMAL": 1,
            "POSITION": 0,
            "TEXCOORD_0": 2
          },
          "indices": 3,
          "material": 0,
          "mode": 4
        }
      ]
    },
    {
      "name": "Ouiter_Easy Glass_0",
      "primitives": [
        {
          "attributes": {
            "NORMAL": 5,
            "POSITION": 4,
            "TEXCOORD_0": 6
          },
          "indices": 7,
          "material": 1,
          "mode": 4
        }
      ]
    },
    {
      "name": "Ouiter_Light_Top_0",
      "primitives": [
        {
          "attributes": {
            "NORMAL": 9,
            "POSITION": 8,
            "TEXCOORD_0": 10
          },
          "indices": 11,
          "material": 2,
          "mode": 4
        }
      ]
    },
    {
      "name": "Inner_Inner_Mat_0",
      "primitives": [
        {
          "attributes": {
            "NORMAL": 13,
            "POSITION": 12,
            "TEXCOORD_0": 14
          },
          "indices": 15,
          "material": 3,
          "mode": 4
        }
      ]
    }
  ],
  "nodes": [
    {
      "children": [
        1
      ],
      "matrix": [
        1.0,
        0.0,
        0.0,
        0.0,
        0.0,
        2.220446049250313e-16,
        -1.0,
        0.0,
        0.0,
        1.0,
        2.220446049250313e-16,
        0.0,
        0.0,
        0.0,
        0.0,
        1.0
      ],
      "name": "Sketchfab_model"
    },
    {
      "children": [
        2
      ],
      "matrix": [
        1.0,
        0.0,
        0.0,
        0.0,
        0.0,
        0.0,
        1.0,
        0.0,
        0.0,
        -1.0,
        0.0,
        0.0,
        0.0,
        0.0,
        0.0,
        1.0
      ],
      "name": "d5ca90980b924f39bdf8682f672d2707.fbx"
    },
    {
      "children": [
        3
      ],
      "name": "Object_2"
    },
    {
      "children": [
        4,
        8
      ],
      "name": "RootNode"
    },
    {
      "children": [
        5,
        6,
        7
      ],
      "name": "Ouiter",
      "rotation": [
        -0.7071068286895752,
        0.0,
        0.0,
        0.7071067094802856
      ],
      "scale": [
        100.0,
        100.0,
        100.0
      ]
    },
    {
      "mesh": 0,
      "name": "Ouiter_Metal12_0"
    },
    {
      "mesh": 1,
      "name": "Ouiter_Easy Glass_0"
    },
    {
      "mesh": 2,
      "name": "Ouiter_Light_Top_0"
    },
    {
      "children": [
        9
      ],
      "name": "Inner",
      "rotation": [
        -0.7071068286895752,
        0.0,
        0.0,
        0.7071067094802856
      ],
      "scale": [
        100.0,
        100.0,
        100.0
      ]
    },
    {
      "mesh": 3,
      "name": "Inner_Inner_Mat_0"
    }
  ],
  "samplers": [
    {
      "magFilter": 9729,
      "minFilter": 9987,
      "wrapS": 10497,
      "wrapT": 10497
    }
  ],
  "scene": 0,
  "scenes": [
    {
      "name": "Sketchfab_Scene",
      "nodes": [
        0
      ]
    }
  ],
  "textures": [
    {
      "sampler": 0,
      "source": 0
    },
    {
      "sampler": 0,
      "source": 1
    },
    {
      "sampler": 0,
      "source": 2
    },
    {
      "sampler": 0,
      "source": 3
    }
  ]
}
