{
  "accessors": [
    {
      "bufferView": 2,
      "componentType": 5126,
      "count": 5884,
      "max": [
        1.7808144092559814,
        0.15000002086162567,
        1.6824913024902344
      ],
      "min": [
        -1.81267249584198,
        -5.5045460612745956e-05,
        -2.452946424484253
      ],
      "type": "VEC3"
    },
    {
      "bufferView": 2,
      "byteOffset": 70608,
      "componentType": 5126,
      "count": 5884,
      "max": [
        0.9987928867340088,
        1.0,
        0.9999292492866516
      ],
      "min": [
        -0.9989667534828186,
        -1.0,
        -0.9993371963500977
      ],
      "type": "VEC3"
    },
    {
      "bufferView": 1,
      "componentType": 5126,
      "count": 5884,
      "max": [
        1.0,
        0.9999999403953552
      ],
      "min": [
        0.0,
        0.0
      ],
      "type": "VEC2"
    },
    {
      "bufferView": 0,
      "componentType": 5125,
      "count": 8013,
      "type": "SCALAR"
    },
    {
      "bufferView": 2,
      "byteOffset": 141216,
      "componentType": 5126,
      "count": 265,
      "max": [
        0.813986599445343,
        0.4811304211616516,
        1.2224711179733276
      ],
      "min": [
        -0.8139867186546326,
        -0.006906830705702305,
        -1.0422630310058594
      ],
      "type": "VEC3"
    },
    {
      "bufferView": 2,
      "byteOffset": 144396,
      "componentType": 5126,
      "count": 265,
      "max": [
        0.999295711517334,
        0.9999345541000366,
        0.998665988445282
      ],
      "min": [
        -0.999295711517334,
        -0.999977707862854,
        -0.9999632835388184
      ],
      "type": "VEC3"
    },
    {
      "bufferView": 1,
      "byteOffset": 47072,
      "componentType": 5126,
      "count": 265,
      "max": [
        1.0,
        1.0
      ],
      "min": [
        0.0,
        0.0
      ],
      "type": "VEC2"
    },
    {
      "bufferView": 0,
      "byteOffset": 32052,
      "componentType": 5125,
      "count": 1008,
      "type": "SCALAR"
    },
    {
      "bufferView": 2,
      "byteOffset": 147576,
      "componentType": 5126,
      "count": 544,
      "max": [
        1.6887025833129883,
        0.09010586142539978,
        1.5822052955627441
      ],
      "min": [
        1.0327575206756592,
        0.009894151240587234,
        0.8610559105873108
      ],
      "type": "VEC3"
    },
    {
      "bufferView": 2,
      "byteOffset": 154104,
      "componentType": 5126,
      "count": 544,
      "max": [
        0.975543200969696,
        0.9990279078483582,
        0.9706287384033203
      ],
      "min": [
        -0.975543200969696,
        -0.9990279078483582,
        -0.9706287384033203
      ],
      "type": "VEC3"
    },
    {
      "bufferView": 1,
      "byteOffset": 49192,
      "componentType": 5126,
      "count": 544,
      "max": [
        1.0,
        1.0
      ],
      "min": [
        0.0,
        0.0
      ],
      "type": "VEC2"
    },
    {
      "bufferView": 0,
      "byteOffset": 36084,
      "componentType": 5125,
      "count": 2304,
      "type": "SCALAR"
    },
    {
      "bufferView": 2,
      "byteOffset": 160632,
      "componentType": 5126,
      "count": 2353,
      "max": [
        1.815821647644043,
        0.10004228353500366,
        1.4519935846328735
      ],
      "min": [
        -1.797576904296875,
        -1.862645149230957e-08,
        -2.4359848499298096
      ],
      "type": "VEC3"
    },
    {
      "bufferView": 2,
      "byteOffset": 188868,
      "componentType": 5126,
      "count": 2353,
      "max": [
        0.998766303062439,
        1.0,
        0.9999716281890869
      ],
      "min": [
        -0.9999940991401672,
        -1.0,
        -0.9998658895492554
      ],
      "type": "VEC3"
    },
    {
      "bufferView": 1,
      "byteOffset": 53544,
      "componentType": 5126,
      "count": 2353,
      "max": [
        1.0,
        1.0
      ],
      "min": [
        0.0,
        0.0
      ],
      "type": "VEC2"
    },
    {
      "bufferView": 0,
      "byteOffset": 45300,
      "componentType": 5125,
      "count": 4398,
      "type": "SCALAR"
    },
    {
      "bufferView": 2,
      "byteOffset": 217104,
      "componentType": 5126,
      "count": 128,
      "max": [
        0.9999997019767761,
        0.566288948059082,
        1.0015805959701538
      ],
      "min": [
        -0.9999995827674866,
        -0.0008327960968017578,
        -0.9984146952629089
      ],
      "type": "VEC3"
    },
    {
      "bufferView": 2,
      "byteOffset": 218640,
      "componentType": 5126,
      "count": 128,
      "max": [
        0.9415796995162964,
        -0.2968340516090393,
        0.9549291729927063
      ],
      "min": [
        -0.9415796995162964,
        -0.9980525374412537,
        -0.9266939163208008
      ],
      "type": "VEC3"
    },
    {
      "bufferView": 1,
      "byteOffset": 72368,
      "componentType": 5126,
      "count": 128,
      "max": [
        0.0,
        0.0
      ],
      "min": [
        0.0,
        0.0
      ],
      "type": "VEC2"
    },
    {
      "bufferView": 0,
      "byteOffset": 62892,
      "componentType": 5125,
      "count": 666,
      "type": "SCALAR"
    },
    {
      "bufferView": 2,
      "byteOffset": 220176,
      "componentType": 5126,
      "count": 544,
      "max": [
        1.7036582231521606,
        0.09157384186983109,
        1.3519843816757202
      ],
      "min": [
        0.9633688926696777,
        0.008426172658801079,
        0.6819157004356384
      ],
      "type": "VEC3"
    },
    {
      "bufferView": 2,
      "byteOffset": 226704,
      "componentType": 5126,
      "count": 544,
      "max": [
        0.9789806604385376,
        0.9959860444068909,
        0.9828675389289856
      ],
      "min": [
        -0.9789806604385376,
        -0.9959860444068909,
        -0.9828675389289856
      ],
      "type": "VEC3"
    },
    {
      "bufferView": 1,
      "byteOffset": 73392,
      "componentType": 5126,
      "count": 544,
      "max": [
        1.0,
        1.0
      ],
      "min": [
        0.0,
        0.0
      ],
      "type": "VEC2"
    },
    {
      "bufferView": 0,
      "byteOffset": 65556,
      "componentType": 5125,
      "count": 2304,
      "type": "SCALAR"
    },
    {
      "bufferView": 2,
      "byteOffset": 233232,
      "componentType": 5126,
      "count": 936,
      "max": [
        0.9903927445411682,
        1.0,
        0.9903927445411682
      ],
      "min": [
        -0.990392804145813,
        -1.0,
        -0.990392804145813
      ],
      "type": "VEC3"
    },
    {
      "bufferView": 2,
      "byteOffset": 244464,
      "componentType": 5126,
      "count": 936,
      "max": [
        1.0,
        1.0,
        1.0
      ],
      "min": [
        -1.0,
        -1.0,
        -1.0
      ],
      "type": "VEC3"
    },
    {
      "bufferView": 1,
      "byteOffset": 77744,
      "componentType": 5126,
      "count": 936,
      "max": [
        0.9999999403953552,
        1.0
      ],
      "min": [
        0.0,
        0.0
      ],
      "type": "VEC2"
    },
    {
      "bufferView": 0,
      "byteOffset": 74772,
      "componentType": 5125,
      "count": 1488,
      "type": "SCALAR"
    },
    {
      "bufferView": 3,
      "componentType": 5126,
      "count": 27,
      "max": [
        2.5
      ],
      "min": [
        0.0416666679084301
      ],
      "type": "SCALAR"
    },
    {
      "bufferView": 4,
      "componentType": 5126,
      "count": 27,
      "max": [
        0.7071068286895752,
        0.10080503672361374,
        0.10080503672361374,
        0.7071067094802856
      ],
      "min": [
        0.6998845338821411,
        0.0,
        -0.0,
        0.6998845338821411
      ],
      "type": "VEC4"
    },
    {
      "bufferView": 3,
      "byteOffset": 108,
      "componentType": 5126,
      "count": 30,
      "max": [
        2.5
      ],
      "min": [
        0.0416666679084301
      ],
      "type": "SCALAR"
    },
    {
      "bufferView": 4,
      "byteOffset": 432,
      "componentType": 5126,
      "count": 30,
      "max": [
        -0.580287754535675,
        -0.3179923892021179,
        0.4040620028972626,
        0.6315701603889465
      ],
      "min": [
        -0.6315701007843018,
        -0.4040619432926178,
        0.31799235939979553,
        0.5802878141403198
      ],
      "type": "VEC4"
    }
  ],
  "animations": [
    {
      "channels": [
        {
          "sampler": 0,
          "target": {
            "node": 3,
            "path": "rotation"
          }
        },
        {
          "sampler": 1,
          "target": {
            "node": 9,
            "path": "rotation"
          }
        }
      ],
      "name": "Animation",
      "samplers": [
        {
          "input": 28,
          "interpolation": "LINEAR",
          "output": 29
        },
        {
          "input": 30,
          "interpolation": "LINEAR",
          "output": 31
        }
      ]
    }
  ],
  "asset": {
    "extras": {
      "author": "DUCK_ (https://sketchfab.com/DUCK_THE_KILLER)",
      "license": "CC-BY-4.0 (http://creativecommons.org/licenses/by/4.0/)",
      "source": "https://sketchfab.com/3d-models/barbers-scissors-8b9086eed6a048f8967044fa92a65c4a",
      "title": "Barber's scissors"
    },
    "generator": "Sketchfab-12.68.0",
    "version": "2.0"
  },
  "bufferViews": [
    {
      "buffer": 0,
      "byteLength": 80724,
      "name": "floatBufferViews",
      "target": 34963
    },
    {
      "buffer": 0,
      "byteLength": 85232,
      "byteOffset": 80724,
      "byteStride": 8,
      "name": "floatBufferViews",
      "target": 34962
    },
    {
      "buffer": 0,
      "byteLength": 255696,
      "byteOffset": 165956,
      "byteStride": 12,
      "name": "floatBufferViews",
      "target": 34962
    },
    {
      "buffer": 0,
      "byteLength": 228,
      "byteOffset": 421652,
      "name": "floatBufferViews"
    },
    {
      "buffer": 0,
      "byteLength": 912,
      "byteOffset": 421880,
      "byteStride": 16,
      "name": "floatBufferViews"
    }
  ],
  "buffers": [
    {
      "byteLength": 422792,
      "uri": "scene.bin"
    }
  ],
  "materials": [
    {
      "doubleSided": true,
      "name": "Scene_-_Root",
      "pbrMetallicRoughness": {
        "metallicFactor": 0.0,
        "roughnessFactor": 0.6
      }
    }
  ],
  "meshes": [
    {
      "name": "Object_0",
      "primitives": [
        {
          "attributes": {
            "NORMAL": 1,
            "POSITION": 0,
            "TEXCOORD_0": 2
          },
          "indices": 3,
          "material": 0,
          "mode": 4
        }
      ]
    },
    {
      "name": "Object_1",
      "primitives": [
        {
          "attributes": {
            "NORMAL": 5,
            "POSITION": 4,
            "TEXCOORD_0": 6
          },
          "indices": 7,
          "material": 0,
          "mode": 4
        }
      ]
    },
    {
      "name": "Object_2",
      "primitives": [
        {
          "attributes": {
            "NORMAL": 9,
            "POSITION": 8,
            "TEXCOORD_0": 10
          },
          "indices": 11,
          "material": 0,
          "mode": 4
        }
      ]
    },
    {
      "name": "Object_3",
      "primitives": [
        {
          "attributes": {
            "NORMAL": 13,
            "POSITION": 12,
            "TEXCOORD_0": 14
          },
          "indices": 15,
          "material": 0,
          "mode": 4
        }
      ]
    },
    {
      "name": "Object_4",
      "primitives": [
        {
          "attributes": {
            "NORMAL": 17,
            "POSITION": 16,
            "TEXCOORD_0": 18
          },
          "indices": 19,
          "material": 0,
          "mode": 4
        }
      ]
    },
    {
      "name": "Object_5",
      "primitives": [
        {
          "attributes": {
            "NORMAL": 21,
            "POSITION": 20,
            "TEXCOORD_0": 22
          },
          "indices": 23,
          "material": 0,
          "mode": 4
        }
      ]
    },
    {
      "name": "Object_6",
      "primitives": [
        {
          "attributes": {
            "NORMAL": 25,
            "POSITION": 24,
            "TEXCOORD_0": 26
          },
          "indices": 27,
          "material": 0,
          "mode": 4
        }
      ]
    }
  ],
  "nodes": [
    {
      "children": [
        1
      ],
      "matrix": [
        1.0,
        0.0,
        0.0,
        0.0,
        0.0,
        2.220446049250313e-16,
        -1.0,
        0.0,
        0.0,
        1.0,
        2.220446049250313e-16,
        0.0,
        0.0,
        0.0,
        0.0,
        1.0
      ],
      "name": "Sketchfab_model"
    },
    {
      "children": [
        2
      ],
      "name": "root"
    },
    {
      "children": [
        3,
        9,
        15
      ],
      "matrix": [
        1.0,
        0.0,
        0.0,
        0.0,
        0.0,
        2.220446049250313e-16,
        1.0,
        0.0,
        0.0,
        -1.0,
        2.220446049250313e-16,
        0.0,
        0.0,
        0.0,
        0.0,
        1.0
      ],
      "name": "GLTF_SceneRootNode"
    },
    {
      "children": [
        4,
        5,
        7
      ],
      "name": "BladeA_2",
      "rotation": [
        0.7071068286895752,
        0.0,
        0.0,
        0.7071068286895752
      ],
      "translation": [
        0.0,
        0.02500000409781933,
        -0.02500000223517418
      ]
    },
    {
      "mesh": 0,
      "name": "Object_4"
    },
    {
      "children": [
        6
      ],
      "matrix": [
        3.5408653999115274e-10,
        -0.056217666715383516,
        -1.1305458127009506e-09,
        0.0,
        0.8213376819054399,
        -6.2984921722630816e-09,
        0.5704422953132053,
        0.0,
        -0.04872093179547608,
        -1.7175888757804616e-09,
        0.07014966721427644,
        0.0,
        1.688987374305725,
        0.05000000074505806,
        1.5106383562088013,
        1.0
      ],
      "name": "Handle_0"
    },
    {
      "mesh": 1,
      "name": "Object_6"
    },
    {
      "children": [
        8
      ],
      "name": "PaddingA_1"
    },
    {
      "mesh": 2,
      "name": "Object_8"
    },
    {
      "children": [
        10,
        11,
        13
      ],
      "name": "BladeB_5",
      "rotation": [
        -0.5808031558990479,
        -0.403320848941803,
        0.4033208191394806,
        0.5808031558990479
      ],
      "scale": [
        -1.0,
        -1.0,
        -1.0
      ],
      "translation": [
        0.0,
        0.02500000409781933,
        -0.02500000223517418
      ]
    },
    {
      "mesh": 3,
      "name": "Object_10"
    },
    {
      "children": [
        12
      ],
      "matrix": [
        -9.987514165631545e-10,
        -0.030624557286500827,
        -2.3804237175779973e-09,
        -0.0,
        -0.12402786108671025,
        -5.773257946914866e-09,
        0.12631216399232473,
        -0.0,
        0.052675109897755576,
        -5.738231923869859e-09,
        0.05172250246241508,
        -0.0,
        1.026555061340332,
        0.050181932747364044,
        1.3338234424591064,
        1.0
      ],
      "name": "damper_3"
    },
    {
      "mesh": 4,
      "name": "Object_12"
    },
    {
      "children": [
        14
      ],
      "name": "PaddingB_4"
    },
    {
      "mesh": 5,
      "name": "Object_14"
    },
    {
      "children": [
        16
      ],
      "matrix": [
        0.10000002384185791,
        0.0,
        0.0,
        0.0,
        0.0,
        0.0,
        0.07876334339380264,
        0.0,
        0.0,
        -0.10000002384185791,
        0.0,
        0.0,
        0.0,
        0.02499999850988388,
        0.05000000074505806,
        1.0
      ],
      "name": "Screw_6"
    },
    {
      "mesh": 6,
      "name": "Object_16"
    }
  ],
  "scene": 0,
  "scenes": [
    {
      "name": "Sketchfab_Scene",
      "nodes": [
        0
      ]
    }
  ]
}
